<svg aria-hidden="true" style="position: absolute; width: 0; height: 0; overflow: hidden;" version="1.1" xmlns="http://www.w3.org/2000/svg" xmlns:xlink="http://www.w3.org/1999/xlink">
<defs>

<symbol id="icon-instagram" viewBox="0 0 32 32">
<path  d="M31.968 9.408c-0.074-1.701-0.349-2.869-0.742-3.882-0.424-1.111-1.054-2.059-1.85-2.837l-0.001-0.001c-0.78-0.792-1.724-1.419-2.778-1.827l-0.054-0.018c-1.019-0.394-2.181-0.667-3.882-0.742-1.712-0.082-2.256-0.101-6.602-0.101-4.344 0-4.888 0.019-6.595 0.094-1.699 0.074-2.869 0.349-3.88 0.742-1.112 0.424-2.060 1.054-2.839 1.85l-0.001 0.001c-0.791 0.78-1.418 1.724-1.825 2.778l-0.018 0.054c-0.395 1.019-0.669 2.181-0.744 3.882-0.082 1.712-0.101 2.256-0.101 6.602 0 4.344 0.019 4.888 0.094 6.595 0.075 1.701 0.35 2.869 0.744 3.882 0.426 1.11 1.055 2.057 1.849 2.837l0.001 0.001c0.8 0.813 1.77 1.443 2.832 1.843 1.019 0.395 2.182 0.67 3.882 0.744 1.707 0.075 2.251 0.094 6.595 0.094 4.346 0 4.89-0.019 6.595-0.094 1.701-0.074 2.869-0.349 3.882-0.742 2.157-0.85 3.833-2.526 4.664-4.628l0.019-0.055c0.394-1.019 0.669-2.182 0.744-3.882 0.075-1.707 0.093-2.251 0.093-6.595s-0.006-4.888-0.080-6.595zM29.088 22.474c-0.070 1.563-0.333 2.406-0.55 2.97-0.552 1.399-1.64 2.486-3.004 3.024l-0.036 0.012c-0.56 0.219-1.411 0.482-2.968 0.55-1.688 0.075-2.194 0.094-6.464 0.094-4.269 0-4.782-0.019-6.464-0.094-1.563-0.069-2.406-0.331-2.97-0.55-0.721-0.269-1.334-0.676-1.836-1.192l-0.001-0.001c-0.517-0.503-0.924-1.117-1.184-1.803l-0.011-0.034c-0.218-0.563-0.48-1.413-0.549-2.97-0.075-1.688-0.094-2.195-0.094-6.464 0-4.27 0.019-4.784 0.094-6.464 0.069-1.563 0.331-2.406 0.549-2.97 0.269-0.722 0.678-1.337 1.198-1.837l0.002-0.002c0.504-0.517 1.119-0.923 1.806-1.182l0.034-0.011c0.56-0.219 1.411-0.48 2.968-0.55 1.688-0.074 2.195-0.093 6.464-0.093 4.275 0 4.782 0.019 6.464 0.093 1.563 0.069 2.406 0.331 2.97 0.55 0.693 0.256 1.325 0.662 1.837 1.194 0.531 0.52 0.938 1.144 1.195 1.84 0.218 0.56 0.48 1.411 0.549 2.968 0.075 1.688 0.094 2.194 0.094 6.464 0 4.269-0.019 4.768-0.094 6.458z"></path>
<path  d="M16.059 7.782c-4.539 0.002-8.218 3.682-8.219 8.221v0c0 0 0 0.001 0 0.002 0 4.541 3.681 8.222 8.222 8.222s8.222-3.681 8.222-8.222c0-4.541-3.681-8.222-8.222-8.222-0.001 0-0.001 0-0.002 0h0zM16.059 21.334c-2.945-0-5.332-2.388-5.332-5.333s2.388-5.333 5.333-5.333c0 0 0.001 0 0.001 0h-0c2.946 0 5.334 2.388 5.334 5.334s-2.388 5.334-5.334 5.334v0zM26.525 7.458c0 1.060-0.86 1.92-1.92 1.92s-1.92-0.86-1.92-1.92v0c0-1.060 0.86-1.92 1.92-1.92s1.92 0.86 1.92 1.92v0z"></path>
</symbol>
<symbol id="icon-facebook" viewBox="0 0 32 32">
<path  d="M21.328 5.312h2.923v-5.088c-1.232-0.143-2.66-0.224-4.107-0.224-0.052 0-0.104 0-0.157 0l0.008-0c-4.213 0-7.099 2.65-7.099 7.52v4.48h-4.646v5.688h4.646v14.312h5.699v-14.31h4.459l0.709-5.688h-5.17v-3.922c0-1.643 0.443-2.768 2.734-2.768z"></path>
</symbol>
<symbol id="icon-char" viewBox="0 0 32 32">
<path d="M26.667 7.303l-1.97-1.97-7.808 7.808-7.808-7.808-1.97 1.97 7.808 7.808-7.808 7.808 1.97 1.97 7.808-7.808 7.808 7.808 1.97-1.97-7.808-7.808 7.808-7.808z"></path>
</symbol>
<symbol id="icon--" viewBox="0 0 32 32">
<path d="M16 16c2.947 0 5.333-2.387 5.333-5.333s-2.387-5.333-5.333-5.333c-2.947 0-5.333 2.387-5.333 5.333s2.387 5.333 5.333 5.333zM16 18.667c-3.56 0-10.667 1.787-10.667 5.333v1.333c0 0.733 0.6 1.333 1.333 1.333h18.667c0.733 0 1.333-0.6 1.333-1.333v-1.333c0-3.547-7.107-5.333-10.667-5.333z"></path>
</symbol>

<symbol id="icon-icon-send" viewBox="0 0 32 32">
<path d="M32 0l-32 18 10.227 3.788 15.773-14.788-11.998 16.186 0.010 0.004-0.012-0.004v8.814l5.735-6.691 7.265 2.691 5-28z"></path>
</symbol>
<symbol id="icon-menu" viewBox="0 0 32 32">
<path d="M6.4 11.733v-2.133h19.2v2.133h-19.2zM6.4 17.067h19.2v-2.133h-19.2v2.133zM6.4 22.4h19.2v-2.133h-19.2v2.133z"></path>
</symbol>

<symbol id="icon-phone" viewBox="0 0 32 32">
<path d="M22 20c-2 2-2 4-4 4s-4-2-6-4-4-4-4-6 2-2 4-4-4-8-6-8-6 6-6 6c0 4 4.109 12.109 8 16s12 8 16 8c0 0 6-4 6-6s-6-8-8-6z"></path>
</symbol>
<symbol id="icon-location2" viewBox="0 0 32 32">
<path d="M16 0c-5.523 0-10 4.477-10 10 0 10 10 22 10 22s10-12 10-22c0-5.523-4.477-10-10-10zM16 16.125c-3.383 0-6.125-2.742-6.125-6.125s2.742-6.125 6.125-6.125 6.125 2.742 6.125 6.125-2.742 6.125-6.125 6.125zM12.125 10c0-2.14 1.735-3.875 3.875-3.875s3.875 1.735 3.875 3.875c0 2.14-1.735 3.875-3.875 3.875s-3.875-1.735-3.875-3.875z"></path>
</symbol>
<symbol id="icon-map" viewBox="0 0 32 32">
<path d="M0 6l10-4v24l-10 4z"></path>
<path d="M12 1l10 6v23l-10-5z"></path>
<path d="M24 7l8-6v24l-8 6z"></path>
</symbol>
<symbol id="icon-lock" viewBox="0 0 32 32">
<path d="M18.5 14h-0.5v-6c0-3.308-2.692-6-6-6h-4c-3.308 0-6 2.692-6 6v6h-0.5c-0.825 0-1.5 0.675-1.5 1.5v15c0 0.825 0.675 1.5 1.5 1.5h17c0.825 0 1.5-0.675 1.5-1.5v-15c0-0.825-0.675-1.5-1.5-1.5zM6 8c0-1.103 0.897-2 2-2h4c1.103 0 2 0.897 2 2v6h-8v-6z"></path>
</symbol>
<symbol id="icon-unlocked" viewBox="0 0 32 32">
<path d="M24 2c3.308 0 6 2.692 6 6v6h-4v-6c0-1.103-0.897-2-2-2h-4c-1.103 0-2 0.897-2 2v6h0.5c0.825 0 1.5 0.675 1.5 1.5v15c0 0.825-0.675 1.5-1.5 1.5h-17c-0.825 0-1.5-0.675-1.5-1.5v-15c0-0.825 0.675-1.5 1.5-1.5h12.5v-6c0-3.308 2.692-6 6-6h4z"></path>
</symbol>
<symbol id="icon-eye" viewBox="0 0 32 32">
<path d="M16 6c-6.979 0-13.028 4.064-16 10 2.972 5.936 9.021 10 16 10s13.027-4.064 16-10c-2.972-5.936-9.021-10-16-10zM23.889 11.303c1.88 1.199 3.473 2.805 4.67 4.697-1.197 1.891-2.79 3.498-4.67 4.697-2.362 1.507-5.090 2.303-7.889 2.303s-5.527-0.796-7.889-2.303c-1.88-1.199-3.473-2.805-4.67-4.697 1.197-1.891 2.79-3.498 4.67-4.697 0.122-0.078 0.246-0.154 0.371-0.228-0.311 0.854-0.482 1.776-0.482 2.737 0 4.418 3.582 8 8 8s8-3.582 8-8c0-0.962-0.17-1.883-0.482-2.737 0.124 0.074 0.248 0.15 0.371 0.228v0zM16 13c0 1.657-1.343 3-3 3s-3-1.343-3-3 1.343-3 3-3 3 1.343 3 3z"></path>
</symbol>

<symbol id="icon-history" viewBox="0 0 34 32">
<path d="M20 2c7.732 0 14 6.268 14 14s-6.268 14-14 14v-3c2.938 0 5.701-1.144 7.778-3.222s3.222-4.84 3.222-7.778c0-2.938-1.144-5.701-3.222-7.778s-4.84-3.222-7.778-3.222c-2.938 0-5.701 1.144-7.778 3.222-1.598 1.598-2.643 3.601-3.041 5.778h5.819l-7 8-7-8h5.143c0.971-6.784 6.804-12 13.857-12zM26 14v4h-8v-10h4v6z"></path>
</symbol>
<symbol id="icon-clock" viewBox="0 0 32 32">
<path d="M20.586 23.414l-6.586-6.586v-8.828h4v7.172l5.414 5.414zM16 0c-8.837 0-16 7.163-16 16s7.163 16 16 16 16-7.163 16-16-7.163-16-16-16zM16 28c-6.627 0-12-5.373-12-12s5.373-12 12-12c6.627 0 12 5.373 12 12s-5.373 12-12 12z"></path>
</symbol>
<symbol id="icon-clock2" viewBox="0 0 32 32">
<path d="M16 0c-8.837 0-16 7.163-16 16s7.163 16 16 16 16-7.163 16-16-7.163-16-16-16zM20.586 23.414l-6.586-6.586v-8.828h4v7.172l5.414 5.414-2.829 2.829z"></path>
</symbol>
<symbol id="icon-mail" viewBox="0 0 32 32">
<path d="M26.666 0h-21.332c-2.934 0-5.334 2.4-5.334 5.333v21.333c0 2.934 2.4 5.334 5.334 5.334h21.332c2.936 0 5.334-2.4 5.334-5.334v-21.333c0-2.934-2.398-5.333-5.334-5.333zM8 8h16c0.286 0 0.563 0.061 0.817 0.177l-8.817 10.286-8.817-10.287c0.254-0.116 0.531-0.177 0.817-0.177zM6 22v-12c0-0.042 0.002-0.084 0.004-0.125l5.864 6.842-5.8 5.8c-0.045-0.167-0.069-0.34-0.069-0.517zM24 24h-16c-0.177 0-0.35-0.024-0.517-0.069l5.691-5.691 2.826 3.297 2.826-3.297 5.691 5.691c-0.167 0.045-0.34 0.069-0.517 0.069zM26 22c0 0.177-0.024 0.35-0.069 0.517l-5.8-5.8 5.864-6.842c0.003 0.041 0.004 0.083 0.004 0.125v12z"></path>
</symbol>
<symbol id="icon-mail3" viewBox="0 0 32 32">
<path d="M26.667 0h-21.333c-2.934 0-5.334 2.4-5.334 5.334v21.332c0 2.936 2.4 5.334 5.334 5.334h21.333c2.934 0 5.333-2.398 5.333-5.334v-21.332c0-2.934-2.399-5.334-5.333-5.334zM5.707 27.707l-2.414-2.414 8-8 0.914 0.914-6.5 9.5zM4.793 6.207l0.914-0.914 10.293 8.293 10.293-8.293 0.914 0.914-11.207 13.207-11.207-13.207zM26.293 27.707l-6.5-9.5 0.914-0.914 8 8-2.414 2.414z"></path>
</symbol>
<symbol id="icon-arrow-up2" viewBox="0 0 32 32">
<path d="M27.414 12.586l-10-10c-0.781-0.781-2.047-0.781-2.828 0l-10 10c-0.781 0.781-0.781 2.047 0 2.828s2.047 0.781 2.828 0l6.586-6.586v19.172c0 1.105 0.895 2 2 2s2-0.895 2-2v-19.172l6.586 6.586c0.39 0.39 0.902 0.586 1.414 0.586s1.024-0.195 1.414-0.586c0.781-0.781 0.781-2.047 0-2.828z"></path>
</symbol>


<symbol id="icon-time" viewBox="0 0 32 32">
<path d="M22.031 7.205c-1.687-1.17-3.777-1.868-6.031-1.868-5.891 0-10.667 4.776-10.667 10.667s4.776 10.667 10.667 10.667c5.891 0 10.667-4.776 10.667-10.667 0-0.001 0-0.003 0-0.004v0c0-0.452-0.037-0.896-0.092-1.333h-2.575c-2.209 0-4-1.791-4-4v0c0-1.489 0.823-2.773 2.031-3.461zM20.864 17.295c0.367 0.241 0.606 0.652 0.606 1.118 0 0.736-0.597 1.333-1.333 1.333-0.251 0-0.486-0.070-0.687-0.19l0.006 0.003-4.161-2.589c-0.38-0.239-0.628-0.656-0.628-1.131 0-0 0-0.001 0-0.001v0-6.504c0-0.736 0.597-1.333 1.333-1.333s1.333 0.597 1.333 1.333v0 5.768l3.531 2.193zM32 4v5.333c0 1.473-1.194 2.667-2.667 2.667v0h-5.333c-0.736 0-1.333-0.597-1.333-1.333s0.597-1.333 1.333-1.333v0h3.515c-2.385-4.117-6.72-6.656-11.515-6.656v-0.011c-7.352 0-13.333 5.981-13.333 13.333s5.981 13.333 13.333 13.333c0.32 0 0.637-0.012 0.952-0.033 0.032-0.003 0.069-0.004 0.107-0.004 0.701 0 1.274 0.546 1.317 1.235l0 0.004c0.002 0.029 0.003 0.063 0.003 0.097 0 0.702-0.544 1.278-1.234 1.327l-0.004 0c-0.377 0.028-0.757 0.041-1.141 0.041-8.823 0-16-7.177-16-16s7.177-16 16-16c0.013 0 0.024 0.007 0.037 0.008 0.002 0 0.004 0 0.007 0 5.529 0 10.4 2.819 13.253 7.099l0.037 0.058v-3.165c0-0.736 0.597-1.333 1.333-1.333s1.333 0.597 1.333 1.333v0zM25.049 27.62c0.133 0.204 0.212 0.453 0.212 0.721 0 0.468-0.242 0.88-0.607 1.118l-0.005 0.003c-0.612 0.395-1.253 0.748-1.909 1.052-0.165 0.079-0.359 0.125-0.563 0.125-0.532 0-0.992-0.313-1.204-0.765l-0.003-0.008c-0.078-0.165-0.124-0.358-0.124-0.561 0-0.533 0.312-0.992 0.764-1.206l0.008-0.003c0.544-0.252 1.079-0.547 1.588-0.875 0.204-0.132 0.453-0.21 0.72-0.21 0.468 0 0.881 0.241 1.119 0.605l0.003 0.005zM32 16c0 0.727-0.049 1.459-0.145 2.173-0.092 0.655-0.648 1.154-1.321 1.154-0.736 0-1.334-0.597-1.334-1.334 0-0.063 0.004-0.126 0.013-0.187l-0.001 0.007c0.081-0.596 0.123-1.207 0.123-1.813 0-0.736 0.597-1.333 1.333-1.333s1.333 0.597 1.333 1.333v0zM30.044 23.671c-0.347 0.633-0.743 1.251-1.173 1.836-0.246 0.33-0.635 0.542-1.073 0.542-0.737 0-1.334-0.597-1.334-1.334 0-0.298 0.098-0.574 0.264-0.796l-0.003 0.004c0.361-0.488 0.692-1.003 0.98-1.531 0.226-0.435 0.672-0.727 1.188-0.727 0.736 0 1.333 0.597 1.333 1.333 0 0.249-0.068 0.482-0.187 0.681l0.003-0.006z"></path>
</symbol>
<symbol id="icon-quality" viewBox="0 0 32 32">
<path d="M14.88 15.591l-2.347-2.436-2.88 2.772 2.933 3.049c0.563 0.595 1.352 0.97 2.229 0.987l0.003 0h0.049c0.865-0.003 1.648-0.352 2.216-0.918l6.695-6.697-2.829-2.827z"></path>
<path d="M15.896 32l-0.708-0.316c-0.512-0.232-12.521-5.684-12.521-15.684v-8.633c0-1.757 1.133-3.249 2.708-3.786l0.028-0.008 10.597-3.532 10.599 3.533c1.602 0.543 2.735 2.034 2.735 3.789 0 0.002 0 0.003 0 0.005v-0 8.633c0 11.385-12.183 15.576-12.701 15.749zM16 4.256l-9.333 3.111v8.633c0 6.227 7.125 10.463 9.436 11.671 2.323-0.969 9.231-4.46 9.231-11.671v-8.633z"></path>
</symbol>
<symbol id="icon-customer-care" viewBox="0 0 32 32">
<path d="M2.667 2.667c-0-0.018-0.001-0.039-0.001-0.060 0-1.473 1.194-2.667 2.667-2.667s2.667 1.194 2.667 2.667c0 0.021-0 0.041-0.001 0.062l0-0.003c-0.033 1.447-1.214 2.608-2.666 2.608s-2.632-1.16-2.666-2.603l-0-0.003zM8 12h8v-2c0-1.105-0.895-2-2-2v0h-4c-1.105 0-2 0.895-2 2v0 2zM12 6.667c0.018 0 0.039 0.001 0.060 0.001 1.473 0 2.667-1.194 2.667-2.667s-1.194-2.667-2.667-2.667c-0.021 0-0.041 0-0.062 0.001l0.003-0c-1.447 0.033-2.608 1.214-2.608 2.666s1.16 2.632 2.603 2.666l0.003 0zM18.667 5.333c0.018 0 0.039 0.001 0.060 0.001 1.473 0 2.667-1.194 2.667-2.667s-1.194-2.667-2.667-2.667c-0.021 0-0.041 0-0.062 0.001l0.003-0c-1.447 0.033-2.608 1.214-2.608 2.666s1.16 2.632 2.603 2.666l0.003 0zM5.333 10c0-1.307 0.543-2.485 1.411-3.333h-3.411c-1.105 0-2 0.895-2 2v0 2h4v-0.667zM17.256 6.667c0.87 0.845 1.41 2.026 1.411 3.333v0.667h4v-2c0-1.105-0.895-2-2-2v0h-3.411zM30.981 17.353l-13.049 14.647h-13.932c-2.205 0-4-1.795-4-4v-9.333c0-2.205 1.795-4 4-4h13.143c1.514 0 2.84 0.803 3.575 2.007l0.010 0.018 4.289-4.712c0.693-0.765 1.675-1.259 2.771-1.308l0.009-0c0.062-0.003 0.134-0.005 0.206-0.005 1.037 0 1.982 0.398 2.688 1.050l-0.003-0.002c0.803 0.739 1.305 1.795 1.305 2.968 0 1.027-0.385 1.965-1.018 2.676l0.004-0.004zM28.895 13.684c-0.242-0.217-0.563-0.35-0.915-0.35-0.019 0-0.039 0-0.058 0.001l0.003-0c-0.371 0.016-0.7 0.182-0.931 0.438l-0.001 0.001-5.903 6.485c-0.531 1.449-1.794 2.51-3.329 2.742l-0.023 0.003-6.881 0.983-0.377-2.639 6.881-0.983c0.745-0.107 1.307-0.755 1.307-1.508 0-0.84-0.684-1.523-1.524-1.523h-13.143c-0.736 0-1.333 0.599-1.333 1.333v9.333c0 0.735 0.597 1.333 1.333 1.333h12.736l12.253-13.755c0.212-0.238 0.341-0.553 0.341-0.899 0-0.394-0.168-0.748-0.436-0.995l-0.001-0.001z"></path>
</symbol>

<path id="icon-moon" d="M9.528 1.718a.75.75 0 01.162.819A8.97 8.97 0 009 6a9 9 0 009 9 8.97 8.97 0 003.463-.69.75.75 0 01.981.98 10.503 10.503 0 01-9.694 6.46c-5.799 0-10.5-4.701-10.5-10.5 0-4.368 2.667-8.112 6.46-9.694a.75.75 0 01.818.162z"></path>

<path id="icon-sun" d="M12 2.25a.75.75 0 01.75.75v2.25a.75.75 0 01-1.5 0V3a.75.75 0 01.75-.75zM7.5 12a4.5 4.5 0 119 0 4.5 4.5 0 01-9 0zM18.894 6.166a.75.75 0 00-1.06-1.06l-1.591 1.59a.75.75 0 101.06 1.061l1.591-1.59zM21.75 12a.75.75 0 01-.75.75h-2.25a.75.75 0 010-1.5H21a.75.75 0 01.75.75zM17.834 18.894a.75.75 0 001.06-1.06l-1.59-1.591a.75.75 0 10-1.061 1.06l1.59 1.591zM12 18a.75.75 0 01.75.75V21a.75.75 0 01-1.5 0v-2.25A.75.75 0 0112 18zM7.758 17.303a.75.75 0 00-1.061-1.06l-1.591 1.59a.75.75 0 001.06 1.061l1.591-1.59zM6 12a.75.75 0 01-.75.75H3a.75.75 0 010-1.5h2.25A.75.75 0 016 12zM6.697 7.757a.75.75 0 001.06-1.06l-1.59-1.591a.75.75 0 00-1.061 1.06l1.59 1.591z"></path>

<symbol id="icon-delivery" viewBox="0 0 32 32">
<path d="M13.333 5.333h-13.333v-4h13.333v4zM10.667 8h-10.667v4h10.667v-4zM32 26.667h-4.069c0.044 0.203 0.069 0.437 0.069 0.676 0 1.841-1.492 3.333-3.333 3.333s-3.333-1.492-3.333-3.333c0-0.239 0.025-0.473 0.073-0.698l-0.004 0.022h-10.805c0.044 0.203 0.069 0.437 0.069 0.676 0 1.841-1.492 3.333-3.333 3.333s-3.333-1.492-3.333-3.333c0-0.239 0.025-0.473 0.073-0.698l-0.004 0.022h-4.069v-12h8v4h-4v4h14.667v-16.667c0-0.368-0.298-0.667-0.667-0.667v0h-2v-4h2c2.573 0 4.667 2.093 4.667 4.667v0.667h2c4.043 0 7.333 3.289 7.333 7.333v12.667zM22.667 10.667v6.667h5.333v-3.333c0-1.837-1.495-3.333-3.333-3.333h-2z"></path>
</symbol>

<symbol id="icon-viber-icon" viewBox="0 0 32 32">
<path d="M15.078 0h2.047l0.828 0.047 1.156 0.078 0.891 0.078 0.797 0.094 1.031 0.156 0.531 0.094 0.859 0.188 0.5 0.125 0.516 0.156 0.453 0.156 0.516 0.203 0.469 0.219 0.313 0.156 0.359 0.203 0.266 0.156 0.281 0.188 0.281 0.203 0.188 0.141 0.156 0.125 0.172 0.141 0.219 0.188 0.672 0.672 0.141 0.172 0.188 0.219 0.203 0.266 0.219 0.297 0.297 0.453 0.188 0.328 0.188 0.344 0.172 0.359 0.172 0.391 0.172 0.453 0.188 0.594 0.172 0.641 0.125 0.578 0.172 0.938 0.109 0.781 0.094 0.922 0.078 1.063 0.047 0.703v1.938l-0.063 1.094-0.094 1.125-0.078 0.688-0.094 0.656-0.141 0.781-0.156 0.734-0.172 0.641-0.188 0.594-0.125 0.344-0.156 0.375-0.203 0.438-0.219 0.406-0.203 0.344-0.359 0.531-0.172 0.234-0.172 0.219-0.172 0.203-0.156 0.172-0.109 0.125-0.172 0.188-0.219 0.219-0.125 0.109-0.188 0.172-0.172 0.141-0.25 0.203-0.297 0.219-0.281 0.203-0.375 0.234-0.266 0.156-0.516 0.266-0.5 0.219-0.484 0.188-0.594 0.203-0.438 0.125-0.781 0.203-0.844 0.188-0.688 0.125-0.891 0.141-0.641 0.078-0.703 0.063-0.922 0.063-0.734 0.031-0.609 0.016h-0.734l-0.719-0.016-0.078 0.047-0.234 0.188-0.266 0.203-0.219 0.172-0.281 0.219-0.219 0.172-0.203 0.156-0.219 0.172-0.266 0.203-0.219 0.172-0.281 0.219-0.406 0.313-0.219 0.156-0.281 0.203-0.375 0.25-0.203 0.125-0.328 0.172-0.328 0.125-0.234 0.047h-0.203l-0.297-0.078-0.203-0.109-0.156-0.141-0.109-0.156-0.125-0.25-0.094-0.359-0.063-0.406-0.031-0.359-0.016-0.297-0.016-0.672v-1.172l-0.266-0.063-0.625-0.172-0.641-0.203-0.469-0.172-0.453-0.188-0.375-0.172-0.406-0.203-0.297-0.172-0.344-0.219-0.344-0.234-0.297-0.219-0.203-0.172-0.172-0.141-0.156-0.141-0.234-0.219-0.422-0.422-0.109-0.125-0.188-0.219-0.156-0.203-0.188-0.234-0.25-0.359-0.25-0.406-0.203-0.359-0.219-0.422-0.172-0.375-0.172-0.438-0.188-0.531-0.141-0.469-0.141-0.563-0.156-0.766-0.125-0.719-0.078-0.578-0.109-1.047-0.078-1.078-0.031-0.469v-2.375l0.094-1.359 0.063-0.688 0.094-0.797 0.109-0.688 0.141-0.766 0.156-0.688 0.188-0.656 0.188-0.578 0.172-0.438 0.219-0.469 0.25-0.484 0.234-0.391 0.109-0.172 0.25-0.359 0.141-0.188 0.172-0.219 0.203-0.234 0.156-0.172 0.109-0.125 0.156-0.156 0.047-0.063h0.031l0.031-0.063h0.031v-0.031l0.125-0.109 0.172-0.172 0.172-0.141 0.172-0.156 0.313-0.234 0.297-0.219 0.5-0.313 0.391-0.219 0.313-0.172 0.609-0.266 0.453-0.172 0.547-0.188 0.766-0.203 0.75-0.172 0.844-0.156 0.813-0.125 0.766-0.094 1.094-0.094 1.438-0.094zM15.219 2.75l-0.969 0.031-1.063 0.063-0.578 0.047-0.984 0.109-0.516 0.063-0.766 0.125-0.609 0.125-0.813 0.203-0.406 0.125-0.484 0.172-0.469 0.203-0.391 0.203-0.359 0.219-0.438 0.313-0.172 0.141-0.219 0.188-0.188 0.172-0.094 0.078v0.031h-0.031v0.031h-0.031l-0.109 0.125-0.188 0.203-0.141 0.172-0.172 0.219-0.203 0.281-0.188 0.313-0.156 0.266-0.234 0.484-0.156 0.406-0.156 0.484-0.141 0.5-0.141 0.641-0.125 0.719-0.094 0.625-0.078 0.656-0.063 0.734-0.047 0.859-0.016 0.406v1.625l0.031 0.734 0.047 0.75 0.078 0.797 0.094 0.719 0.094 0.594 0.109 0.578 0.141 0.594 0.172 0.578 0.141 0.391 0.172 0.406 0.125 0.266 0.203 0.359 0.172 0.281 0.188 0.266 0.172 0.219 0.141 0.172 0.141 0.156 0.109 0.125 0.328 0.328 0.125 0.109 0.219 0.188 0.266 0.203 0.375 0.25 0.375 0.219 0.453 0.234 0.391 0.156 0.563 0.188 0.563 0.172 0.656 0.172 0.469 0.109 0.828 0.172 0.25 0.063 0.188 0.094 0.078 0.063 0.109 0.156 0.063 0.156 0.016 0.078 0.016 1.609 0.063-0.016 0.25-0.203 0.469-0.359 0.219-0.172 0.281-0.219 0.219-0.172 0.281-0.219 0.203-0.156 0.266-0.203 0.156-0.109 0.125-0.063 0.203-0.031 1 0.016h1.453l0.813-0.031 0.984-0.063 0.844-0.078 0.609-0.078 1.031-0.172 0.766-0.172 0.734-0.188 0.859-0.281 0.391-0.156 0.344-0.156 0.297-0.156 0.375-0.219 0.391-0.266 0.281-0.219 0.219-0.188 0.203-0.188 0.313-0.313 0.141-0.172 0.188-0.219 0.188-0.25 0.219-0.328 0.141-0.234 0.156-0.281 0.188-0.406 0.172-0.438 0.172-0.563 0.141-0.547 0.141-0.672 0.125-0.75 0.078-0.578 0.078-0.75 0.063-0.859 0.031-0.641 0.016-0.734v-0.453l-0.016-0.813-0.047-0.891-0.063-0.781-0.094-0.844-0.109-0.734-0.125-0.688-0.125-0.547-0.172-0.609-0.141-0.422-0.156-0.375-0.188-0.391-0.156-0.281-0.188-0.297-0.203-0.297-0.156-0.203-0.203-0.234-0.188-0.203-0.359-0.359-0.125-0.109-0.219-0.188-0.266-0.203-0.156-0.109-0.234-0.156-0.328-0.188-0.359-0.188-0.313-0.141-0.563-0.203-0.406-0.125-0.5-0.125-0.859-0.188-0.563-0.094-1-0.141-0.672-0.078-0.75-0.063-1.031-0.063-0.766-0.031z"></path>
<path d="M9.109 7.453h0.344l0.25 0.063 0.25 0.125 0.25 0.172 0.203 0.172 0.219 0.219 0.141 0.172 0.156 0.188 0.219 0.313 0.172 0.266 0.219 0.359 0.156 0.266 0.219 0.391 0.141 0.25 0.234 0.422 0.109 0.25 0.047 0.172 0.016 0.109v0.328l-0.047 0.219-0.078 0.203-0.125 0.203-0.141 0.156-0.219 0.172-0.203 0.172-0.172 0.141-0.328 0.328-0.141 0.219-0.063 0.156-0.016 0.078v0.203l0.078 0.234 0.125 0.219 0.203 0.297 0.219 0.281 0.172 0.219 0.172 0.203 0.141 0.156 0.141 0.172 0.141 0.141 0.109 0.125 0.25 0.266 0.641 0.641 0.125 0.109 0.281 0.281 0.125 0.109 0.203 0.188 0.188 0.172 0.172 0.156 0.172 0.141 0.156 0.141 0.172 0.141 0.25 0.203 0.172 0.141 0.313 0.234 0.313 0.219 0.281 0.172 0.219 0.109h0.266l0.219-0.109 0.156-0.125 0.141-0.156 0.172-0.219 0.188-0.266 0.219-0.297 0.109-0.125 0.234-0.156 0.188-0.078 0.141-0.031 0.141-0.016h0.266l0.219 0.031 0.188 0.063 0.328 0.172 0.25 0.156 0.281 0.172 0.328 0.219 0.344 0.234 0.219 0.156 0.328 0.25 0.25 0.188 0.172 0.141 0.203 0.172 0.219 0.172 0.156 0.141 0.125 0.109 0.125 0.141 0.109 0.172 0.078 0.219 0.016 0.063v0.375l-0.078 0.281-0.125 0.25-0.141 0.234-0.188 0.25-0.125 0.156-0.172 0.188-0.297 0.297-0.125 0.109-0.203 0.172-0.25 0.172-0.281 0.172-0.297 0.156-0.25 0.094-0.375 0.094-0.156 0.016h-0.172l-0.297-0.047-0.516-0.156-0.516-0.172-0.328-0.125-0.563-0.234-0.5-0.219-0.391-0.188-0.438-0.219-0.344-0.188-0.422-0.234-0.313-0.188-0.375-0.234-0.672-0.453-0.359-0.25-0.297-0.219-0.203-0.141-0.25-0.203-0.172-0.141-0.203-0.172-0.172-0.141-0.234-0.203-0.156-0.141-0.266-0.25-0.156-0.156-0.125-0.109-0.453-0.453-0.109-0.125-0.25-0.266-0.109-0.125-0.188-0.219-0.172-0.203-0.172-0.219-0.156-0.188-0.156-0.203-0.188-0.25-0.203-0.281-0.406-0.609-0.141-0.219-0.234-0.375-0.234-0.422-0.203-0.375-0.234-0.453-0.203-0.422-0.203-0.469-0.234-0.563-0.203-0.563-0.188-0.563-0.141-0.453-0.094-0.359-0.031-0.188v-0.141l0.047-0.313 0.094-0.313 0.125-0.281 0.125-0.234 0.156-0.234 0.188-0.25 0.172-0.203 0.313-0.313 0.266-0.203 0.219-0.156 0.297-0.172 0.297-0.125 0.281-0.063zM17.188 4.719h0.641l0.625 0.047 0.578 0.078 0.469 0.094 0.484 0.125 0.359 0.109 0.484 0.188 0.328 0.141 0.344 0.172 0.359 0.203 0.297 0.188 0.281 0.203 0.172 0.125 0.156 0.125 0.203 0.172 0.188 0.172 0.375 0.375 0.141 0.172 0.188 0.219 0.141 0.188 0.203 0.281 0.234 0.391 0.25 0.453 0.203 0.438 0.172 0.453 0.141 0.438 0.125 0.469 0.109 0.563 0.063 0.453 0.047 0.484 0.016 0.313v0.531l-0.063 0.281-0.078 0.188-0.125 0.188-0.188 0.203-0.188 0.141-0.188 0.094-0.25 0.078-0.172 0.031h-0.25l-0.297-0.063-0.297-0.141-0.141-0.109-0.141-0.125-0.141-0.188-0.125-0.234-0.063-0.219-0.031-0.297-0.047-0.734-0.063-0.469-0.094-0.438-0.141-0.484-0.156-0.391-0.188-0.391-0.156-0.266-0.203-0.297-0.172-0.219-0.172-0.188-0.094-0.109-0.125-0.109-0.156-0.141-0.219-0.172-0.203-0.141-0.328-0.203-0.344-0.172-0.297-0.125-0.563-0.188-0.438-0.094-0.5-0.078-0.391-0.031-0.578-0.016-0.281-0.063-0.297-0.141-0.156-0.125-0.188-0.188-0.125-0.203-0.063-0.125-0.063-0.188-0.031-0.172v-0.375l0.063-0.25 0.063-0.141 0.094-0.172 0.141-0.172 0.141-0.141 0.219-0.141 0.188-0.078 0.172-0.047z"></path>
<path d="M17.281 8.813h0.344l0.359 0.047 0.344 0.078 0.422 0.141 0.391 0.188 0.219 0.125 0.281 0.188 0.219 0.172 0.203 0.172 0.188 0.172 0.188 0.203 0.172 0.219 0.203 0.281 0.219 0.375 0.172 0.375 0.125 0.375 0.094 0.438 0.047 0.438v0.219l-0.047 0.266-0.094 0.25-0.125 0.188-0.141 0.172-0.172 0.141-0.219 0.125-0.219 0.078-0.234 0.047h-0.266l-0.281-0.063-0.281-0.125-0.188-0.141-0.172-0.172-0.156-0.234-0.094-0.25-0.047-0.219-0.031-0.328-0.078-0.25-0.141-0.25-0.172-0.203-0.188-0.172-0.234-0.156-0.219-0.109-0.188-0.047-0.344-0.016-0.234-0.063-0.266-0.125-0.141-0.109-0.156-0.141-0.141-0.188-0.125-0.25-0.063-0.234-0.016-0.078v-0.391l0.063-0.25 0.125-0.25 0.109-0.156 0.141-0.156 0.156-0.125 0.25-0.125 0.203-0.063z"></path>
</symbol>

</defs>
</svg>
